<?xml version="1.0" encoding="utf-8"?>
<!-- Generator: Adobe Illustrator 18.1.1, SVG Export Plug-In . SVG Version: 6.00 Build 0)  -->
<svg version="1.2" baseProfile="tiny" id="Layer_1" xmlns="http://www.w3.org/2000/svg" xmlns:xlink="http://www.w3.org/1999/xlink"
	 x="0px" y="0px" viewBox="0 0 180 58" xml:space="preserve">
<path fill="#FBC839" stroke="#FBC839" stroke-miterlimit="10" d="M6.7,18.8c-2.2,0-3.3,1.1-3.3,3.3H0.8c0-3.9,2-5.9,5.9-5.9h5.9
	c3.9,0,5.9,2,5.9,5.9V28c0,3.9-2,5.9-5.9,5.9H6.7c-3.9,0-5.9-1.7-5.9-5c0-2.4,0.8-3.8,2.5-4.2l12.5-2.8c-0.1-2-1.2-3-3.3-3H6.7z
	 M12.5,31.4c2.2,0,3.3-1.1,3.3-3.3v-3.6L4,27.2c-0.5,0.2-0.7,0.4-0.7,0.9c0,2.2,1.1,3.3,3.3,3.3H12.5z"/>
<path fill="#FBC839" stroke="#FBC839" stroke-miterlimit="10" d="M24.3,22.2c0-3.9,2-5.9,5.9-5.9H36c3.9,0,5.9,2,5.9,5.9v13.4
	c0,3.9-2,5.9-5.9,5.9H24.3v-2.5H36c2.2,0,3.3-1.1,3.3-3.3v-1.7h-9.2c-3.9,0-5.9-2-5.9-5.9V22.2z M30.2,18.8c-2.2,0-3.3,1.1-3.3,3.3
	V28c0,2.2,1.1,3.3,3.3,3.3h9.2v-9.2c0-2.2-1.1-3.3-3.3-3.3H30.2z"/>
<path fill="#FBC839" stroke="#FBC839" stroke-miterlimit="10" d="M56.2,16.3h6.7v2.5h-6.7c-3.9,0-5.9,2-5.9,5.9v9.2h-2.5v-9.2
	C47.8,19.1,50.6,16.3,56.2,16.3z"/>
<path fill="#FBC839" stroke="#FBC839" stroke-miterlimit="10" d="M70.1,14.2c-1.1,0-1.7-0.6-1.7-1.7c0-1.1,0.6-1.7,1.7-1.7
	c1.1,0,1.7,0.6,1.7,1.7C71.8,13.7,71.2,14.2,70.1,14.2z M68.8,33.9V16.3h2.5v17.6H68.8z"/>
<path fill="#FFFFFF" stroke="#FFFFFF" stroke-miterlimit="10" d="M83.2,33.9l-6.3-17.6h2.7l5.1,14.1l5-14.1h2.9l5.1,14.1l5-14.1h2.7
	L99,33.9h-2.8l-5.1-14.1L86,33.9H83.2z"/>
<path fill="#FFFFFF" stroke="#FFFFFF" stroke-miterlimit="10" d="M116.7,18.8c-2.2,0-3.3,1.1-3.3,3.3h-2.5c0-3.9,2-5.9,5.9-5.9h5.9
	c3.9,0,5.9,2,5.9,5.9V28c0,3.9-2,5.9-5.9,5.9h-5.9c-3.9,0-5.9-1.7-5.9-5c0-2.4,0.8-3.8,2.5-4.2l12.5-2.8c-0.1-2-1.2-3-3.3-3H116.7z
	 M122.6,31.4c2.2,0,3.3-1.1,3.3-3.3v-3.6L114,27.2c-0.5,0.2-0.7,0.4-0.7,0.9c0,2.2,1.1,3.3,3.3,3.3H122.6z"/>
<path fill="#FFFFFF" stroke="#FFFFFF" stroke-miterlimit="10" d="M134.3,33.9v-2.5h12.6c1.7,0,2.5-0.8,2.5-2.5s-0.8-2.5-2.5-2.5
	h-7.5c-3.3,0-5-1.7-5-5s1.7-5,5-5h12.6v2.5h-12.6c-1.7,0-2.5,0.8-2.5,2.5c0,1.7,0.8,2.5,2.5,2.5h7.5c3.3,0,5,1.7,5,5s-1.7,5-5,5
	H134.3z"/>
<path fill="#FFFFFF" stroke="#FFFFFF" stroke-miterlimit="10" d="M157.9,8.8h2.5v7.5h6.7c5.6,0,8.4,2.8,8.4,8.4v9.2h-2.5v-9.2
	c0-3.9-2-5.9-5.9-5.9h-6.7v15.1h-2.5V8.8z"/>
<g>
	<path fill="#FFFFFF" stroke="#FFFFFF" stroke-miterlimit="10" d="M7.6,10.5H6L4,6.6H2.4v3.9H1V1.2h3.4c0.7,0,1.4,0.3,1.9,0.8
		c0.5,0.5,0.8,1.2,0.8,1.9c0,0.5-0.2,1-0.5,1.5C6.4,5.8,6,6.2,5.5,6.4L7.6,10.5z M4.4,5.2c0.3,0,0.6-0.1,0.9-0.4
		c0.2-0.2,0.4-0.5,0.4-0.9c0-0.4-0.1-0.7-0.4-0.9C5.1,2.8,4.8,2.6,4.4,2.6h-2v2.5H4.4z"/>
	<path fill="#FFFFFF" stroke="#FFFFFF" stroke-miterlimit="10" d="M16.3,1.2v9.3h-1.4V6.5h-3.8v3.9H9.8V1.2h1.4v3.9h3.8V1.2H16.3z"
		/>
	<path fill="#FFFFFF" stroke="#FFFFFF" stroke-miterlimit="10" d="M20.6,10.5h-1.4V1.2h1.4V10.5z"/>
	<path fill="#FFFFFF" stroke="#FFFFFF" stroke-miterlimit="10" d="M30.2,1.2v9.3h-1.5l-4-6.6v6.6h-1.4V1.2h1.5l4,6.6V1.2H30.2z"/>
	<path fill="#FFFFFF" stroke="#FFFFFF" stroke-miterlimit="10" d="M33.8,9.2c-0.9-0.9-1.4-2-1.4-3.3c0-1.3,0.5-2.4,1.4-3.3
		c0.9-0.9,2-1.4,3.3-1.4c1.3,0,2.4,0.5,3.3,1.4c0.9,0.9,1.4,2,1.4,3.3c0,1.3-0.5,2.4-1.4,3.3c-0.9,0.9-2,1.4-3.3,1.4
		C35.9,10.6,34.8,10.1,33.8,9.2z M34.8,3.5c-0.6,0.6-1,1.4-1,2.3s0.3,1.7,1,2.3c0.6,0.6,1.4,1,2.3,1c0.9,0,1.7-0.3,2.3-1
		c0.6-0.6,1-1.4,1-2.3s-0.3-1.7-1-2.3c-0.6-0.6-1.4-1-2.3-1C36.3,2.5,35.5,2.9,34.8,3.5z"/>
</g>
<g>
	<path fill="#FFFFFF" d="M2.7,49.6c0,0,0.6-0.2,1.8-0.6c1.2-0.3,2.9-0.7,5.2-1.1c1.1-0.2,2.4-0.4,3.8-0.6c0.7-0.1,1.4-0.2,2.1-0.3
		c0.7-0.1,1.5-0.2,2.3-0.3c3.2-0.4,6.8-0.8,10.8-1.3c4-0.4,8.2-0.8,12.8-1.3c2.3-0.2,4.6-0.4,7-0.6c2.4-0.2,4.8-0.4,7.3-0.5
		c2.5-0.2,5-0.3,7.6-0.5c2.6-0.2,5.2-0.2,7.8-0.4c1.3-0.1,2.6-0.1,3.9-0.2c1.3-0.1,2.6-0.1,4-0.1c2.7-0.1,5.3-0.1,8-0.2
		c5.3,0,10.7-0.1,15.9,0c2.6,0,5.2,0.1,7.8,0.2c2.6,0.1,5.1,0.2,7.6,0.2c5,0.2,9.8,0.4,14.4,0.6c4.6,0.2,8.8,0.5,12.8,0.8
		c3.9,0.3,7.6,0.6,10.8,0.9c3.2,0.3,6,0.6,8.3,0.8c2.3,0.2,4.1,0.4,5.3,0.6c1.2,0.1,1.9,0.2,1.9,0.2l0,0c4.1,0.5,6.9,3.6,6.3,6.8
		c-0.6,3.1-4.1,5.3-8,5.1c0,0-0.7,0-1.9-0.1c-1.2-0.1-3-0.2-5.3-0.4c-2.3-0.2-5.1-0.4-8.2-0.7c-3.2-0.3-6.8-0.6-10.7-1
		c-3.9-0.4-8.1-0.8-12.6-1.2c-4.5-0.4-9.1-0.8-14-1.3c-4.9-0.4-9.9-0.8-15-1c-5.1-0.4-10.3-0.6-15.5-0.8c-5.2-0.2-10.4-0.4-15.5-0.4
		c-2.6,0-5.1-0.1-7.6-0.1c-2.5,0-5,0-7.4,0c-2.4,0-4.8,0.1-7.2,0.1c-2.4,0-4.7,0.1-6.9,0.1c-4.5,0.2-8.7,0.3-12.6,0.5
		c-3.9,0.2-7.5,0.4-10.6,0.6c-3.2,0.2-6,0.5-8.3,0.6C8.3,53,6.5,53,5.2,53c-1.3,0-1.9-0.1-1.9-0.1c-1.2-0.1-2-1-1.8-1.9
		C1.6,50.3,2.1,49.9,2.7,49.6z"/>
</g>
</svg>
