<?xml version="1.0" encoding="utf-8"?>
<!-- Generator: Adobe Illustrator 18.1.0, SVG Export Plug-In . SVG Version: 6.00 Build 0)  -->
<svg version="1.2" baseProfile="tiny" xmlns="http://www.w3.org/2000/svg" xmlns:xlink="http://www.w3.org/1999/xlink" x="0px"
	 y="0px" viewBox="0 0 425.2 113.4" xml:space="preserve">
<g id="Layer_2">
</g>
<g id="Layer_1">
	<path fill="#FFFFFF" d="M90.6,58.7h0.1l3.1-19.4H111l3.3,19.4h0.1l3.2-19.4h13.1l-7.2,29.6h-17.8l-3.5-20.1H102l-3.6,20.1h-18
		l-7.2-29.6h14L90.6,58.7z"/>
	<path fill="#FFFFFF" d="M130.8,26.3h14.3V43h0.1c1.4-2.4,4.8-4.4,8.9-4.4c7.6,0,10.4,4,10.4,9.7v20.6h-14.3V51.9c0-1.7,0-4-2.5-4
		c-2.6,0-2.6,2.3-2.6,4v17.1h-14.3V26.3z"/>
	<path fill="#FFFFFF" d="M179.4,57.6c0.2,3.7,3.7,4.5,7.9,4.5c3.9,0,7.4-0.7,9.7-1.9v7.7c-3.8,1.2-8.4,1.7-13.4,1.7
		c-12,0-18.4-5.8-18.4-16c0-10,6.4-15,18.4-15c11.5,0,15.5,7.2,15.5,17.2v1.8H179.4z M186.7,51.3c0-2.3-0.3-5.9-3.6-5.9
		c-3.3,0-4,3.5-3.9,5.9H186.7z"/>
	<path fill="#FFFFFF" d="M213.7,57.6c0.2,3.7,3.7,4.5,7.9,4.5c3.9,0,7.4-0.7,9.7-1.9v7.7c-3.8,1.2-8.4,1.7-13.4,1.7
		c-12,0-18.4-5.8-18.4-16c0-10,6.4-15,18.4-15c11.5,0,15.5,7.2,15.5,17.2v1.8H213.7z M221.1,51.3c0-2.3-0.3-5.9-3.6-5.9
		c-3.3,0-4,3.5-3.9,5.9H221.1z"/>
	<path fill="#FFFFFF" d="M248.8,26.3v42.6h-14.3V26.3H248.8z"/>
	<path fill="#FFFFFF" d="M266.6,58.7h0.1l3.1-19.4H287l3.3,19.4h0.1l3.2-19.4h13.1l-7.2,29.6h-17.9l-3.5-20.1H278l-3.6,20.1h-18
		l-7.2-29.6h14L266.6,58.7z"/>
	<path fill="#FFFFFF" d="M307.7,40.3c4.3-1.2,6.8-1.7,12.4-1.7c8.2,0,18.1,1.5,18.1,12.3v18h-13.3v-4.3h-0.1c-2,3.4-5.6,4.9-9.7,4.9
		c-5.5,0-10.9-2.5-10.9-8.7c0-9.1,8.2-10.9,15.3-10.9c2,0,4.3,0.3,5.6,0.4c-0.1-3.8-4-4.3-7.6-4.3c-3.4,0-7.1,1.1-9.9,2.5V40.3z
		 M325.2,55.9h-1.4c-3,0-6.4,0.3-6.4,3.4c0,2,1.1,2.8,3.4,2.8c3,0,4.4-2.7,4.4-5.3V55.9z"/>
	<path fill="#FFFFFF" d="M341.4,59.4c2.7,1.6,6.8,2.7,10.5,2.7c2.4,0,5.2-0.5,5.2-1.9c0-3.6-16.6-0.1-16.6-11.5
		c0-8.5,9.6-10,16.7-10c3.6,0,7.2,0.5,10.7,1.2v8c-3-1-6.1-1.7-9.3-1.7c-2.4,0-4.9,0.2-4.9,2c0,3.1,16.6-0.5,16.6,10.7
		c0,8.5-9.7,10.7-16.4,10.7c-4.1,0-8.4-0.7-12.4-1.7V59.4z"/>
	<path fill="#FFFFFF" d="M370.9,26.3h14.3V43h0.1c1.4-2.4,4.8-4.4,8.9-4.4c7.6,0,10.4,4,10.4,9.7v20.6h-14.3V51.9c0-1.7,0-4-2.5-4
		c-2.6,0-2.6,2.3-2.6,4v17.1h-14.3V26.3z"/>
	<path fill="#FFFFFF" d="M94.3,100.7h-2.6l-3.1-10.2h0l-3.1,10.2h-2.6L79,88.5h2.5l2.8,10.1h0l3.1-10.1H90l3,10.1h0l3-10.1h2.2
		L94.3,100.7z"/>
	<path fill="#FFFFFF" d="M102.7,82.8h2.2v7.5h0c0.8-1.3,2.2-2,3.9-2c3.1,0,4.6,2,4.6,5.2v7.2h-2.2v-6.3c0-2.8-0.6-4.2-2.6-4.3
		c-2.5,0-3.7,2.1-3.7,5v5.6h-2.2V82.8z"/>
	<path fill="#FFFFFF" d="M128.9,100.2c-0.9,0.3-1.8,0.8-3.8,0.8c-4.3,0-6.3-2.6-6.3-6.6c0-3.6,2.3-6.1,5.7-6.1c4.1,0,5.4,3,5.4,6.9
		h-8.7c0,2.4,1.9,4.1,4,4.1c1.5,0,3.2-0.8,3.7-1.2V100.2z M127.4,93.4c0-1.9-1.1-3.4-3-3.4c-2.2,0-3.1,1.8-3.3,3.4H127.4z"/>
	<path fill="#FFFFFF" d="M144.4,100.2c-0.9,0.3-1.8,0.8-3.8,0.8c-4.3,0-6.3-2.6-6.3-6.6c0-3.6,2.3-6.1,5.7-6.1c4.1,0,5.4,3,5.4,6.9
		h-8.7c0,2.4,1.9,4.1,4,4.1c1.5,0,3.2-0.8,3.7-1.2V100.2z M143,93.4c0-1.9-1.1-3.4-3-3.4c-2.2,0-3.1,1.8-3.3,3.4H143z"/>
	<path fill="#FFFFFF" d="M150.9,82.8h2.2v17.9h-2.2V82.8z"/>
	<path fill="#FFFFFF" d="M176.2,90.6c-0.9-0.4-1.7-0.5-2.4-0.5c-2.5,0-3.9,2.2-3.9,4.6c0,2.2,1.2,4.6,4.1,4.6c0.8,0,1.7-0.2,2.4-0.7
		l0.2,2c-0.9,0.4-2,0.5-2.8,0.5c-3.7,0-6.2-2.9-6.2-6.4c0-3.7,2.5-6.4,6.2-6.4c0.9,0,2.1,0.2,2.7,0.5L176.2,90.6z"/>
	<path fill="#FFFFFF" d="M181.6,82.8h2.2v17.9h-2.2V82.8z"/>
	<path fill="#FFFFFF" d="M199.5,100.2c-0.9,0.3-1.8,0.8-3.8,0.8c-4.3,0-6.3-2.6-6.3-6.6c0-3.6,2.3-6.1,5.7-6.1c4.1,0,5.4,3,5.4,6.9
		h-8.7c0,2.4,1.9,4.1,4,4.1c1.5,0,3.2-0.8,3.7-1.2V100.2z M198.1,93.4c0-1.9-1.1-3.4-3-3.4c-2.2,0-3.1,1.8-3.3,3.4H198.1z"/>
	<path fill="#FFFFFF" d="M206.3,89.4c1.1-0.7,2.5-1.1,4-1.1c3.5,0,4.9,1.7,4.9,5v5c0,1.4,0,2,0.1,2.4h-2.1v-1.6h0
		c-0.5,0.7-1.7,1.9-3.8,1.9c-2.6,0-4.5-1.1-4.5-3.8c0-3,3.3-4,5.6-4c0.9,0,1.5,0,2.4,0c0-2.1-0.8-3.2-3-3.2c-1.3,0-2.6,0.5-3.5,1.2
		L206.3,89.4z M213,94.9c-0.5,0-1,0-1.4,0c-1.2,0-4.2,0.2-4.2,2.3c0,1.3,1.2,2,2.3,2c2.2,0,3.4-1.4,3.4-3.2V94.9z"/>
	<path fill="#FFFFFF" d="M221.3,88.5h2.2v1.9h0c0.7-1.4,2.3-2.2,4-2.2c3.1,0,4.6,2,4.6,5.2v7.2h-2.2v-6.3c0-2.8-0.6-4.2-2.6-4.3
		c-2.5,0-3.7,2.1-3.7,5v5.6h-2.2V88.5z"/>
	<path fill="#FFFFFF" d="M240.8,85.8h-2.5v-2.5h2.5V85.8z M238.4,88.5h2.2v12.2h-2.2V88.5z"/>
	<path fill="#FFFFFF" d="M247.1,88.5h2.2v1.9h0c0.7-1.4,2.3-2.2,4-2.2c3.1,0,4.6,2,4.6,5.2v7.2h-2.2v-6.3c0-2.8-0.6-4.2-2.6-4.3
		c-2.5,0-3.7,2.1-3.7,5v5.6h-2.2V88.5z"/>
	<path fill="#FFFFFF" d="M274.6,100.1c0,3.7-1.9,5.8-6.3,5.8c-1.3,0-2.4-0.2-4.4-0.8l0.2-2.1c1.7,0.8,2.7,1.1,4.4,1.1
		c2.4,0,3.8-1.6,3.8-4.2v-1.2h0c-1,1.3-2.5,1.9-4.1,1.9c-3.5,0-5.2-2.8-5.2-6c0-3.1,1.8-6.5,5.4-6.5c2.1,0,3.3,0.8,4,2.1h0v-1.8h2.1
		V100.1z M272.4,94.7c0-2.5-1.2-4.7-3.5-4.7c-2.3,0-3.4,2.5-3.4,4.5c0,2.3,1.3,4.3,3.4,4.3C271,98.9,272.4,97,272.4,94.7z"/>
	<path fill="#FFFFFF" d="M288.8,98.3c0.9,0.6,2.1,0.9,2.8,0.9c1,0,2.3-0.4,2.3-1.7c0-2.2-5.3-2-5.3-5.4c0-2.5,1.9-3.7,4.3-3.7
		c1,0,1.9,0.2,2.8,0.5l-0.2,2c-0.5-0.3-1.8-0.6-2.4-0.6c-1.1,0-2.1,0.5-2.1,1.5c0,2.5,5.3,1.8,5.3,5.6c0,2.6-2.1,3.8-4.2,3.8
		c-1.1,0-2.3-0.1-3.3-0.7L288.8,98.3z"/>
	<path fill="#FFFFFF" d="M306.6,88.2c3.7,0,6.2,2.7,6.2,6.4c0,3.5-2.5,6.4-6.2,6.4c-3.7,0-6.2-2.9-6.2-6.4
		C300.4,90.9,302.9,88.2,306.6,88.2z M306.6,99.1c2.6,0,3.8-2.4,3.8-4.6c0-2.3-1.4-4.6-3.8-4.6c-2.4,0-3.8,2.2-3.8,4.6
		C302.8,96.8,303.9,99.1,306.6,99.1z"/>
	<path fill="#FFFFFF" d="M318.3,82.8h2.2v17.9h-2.2V82.8z"/>
	<path fill="#FFFFFF" d="M337.7,100.7h-2.2v-1.9h0c-0.7,1.4-2.3,2.2-4,2.2c-3.1,0-4.6-2-4.6-5.2v-7.2h2.2v6.3c0,2.8,0.6,4.2,2.6,4.3
		c2.6,0,3.7-2.1,3.7-5v-5.6h2.2V100.7z"/>
	<path fill="#FFFFFF" d="M350.3,90.3h-3.2V97c0,1.4,0.9,2.2,1.9,2.2c0.7,0,1.2-0.2,1.5-0.4v1.9c-0.5,0.1-1.2,0.3-1.9,0.3
		c-2.3,0-3.7-1.1-3.7-3.5v-7.1h-2.7v-1.8h2.7v-2.8l2.2-0.7v3.5h3.2V90.3z"/>
	<path fill="#FFFFFF" d="M358,85.8h-2.5v-2.5h2.5V85.8z M355.7,88.5h2.2v12.2h-2.2V88.5z"/>
	<path fill="#FFFFFF" d="M369.7,88.2c3.7,0,6.2,2.7,6.2,6.4c0,3.5-2.5,6.4-6.2,6.4c-3.7,0-6.2-2.9-6.2-6.4
		C363.5,90.9,365.9,88.2,369.7,88.2z M369.7,99.1c2.6,0,3.8-2.4,3.8-4.6c0-2.3-1.4-4.6-3.8-4.6c-2.4,0-3.8,2.2-3.8,4.6
		C365.8,96.8,367,99.1,369.7,99.1z"/>
	<path fill="#FFFFFF" d="M381.1,88.5h2.2v1.9h0c0.7-1.4,2.3-2.2,4-2.2c3.1,0,4.6,2,4.6,5.2v7.2h-2.2v-6.3c0-2.8-0.6-4.2-2.6-4.3
		c-2.5,0-3.7,2.1-3.7,5v5.6h-2.2V88.5z"/>
	<path fill="#FFFFFF" d="M397.1,98.3c0.9,0.6,2.1,0.9,2.8,0.9c1,0,2.3-0.4,2.3-1.7c0-2.2-5.3-2-5.3-5.4c0-2.5,1.9-3.7,4.3-3.7
		c1,0,1.9,0.2,2.8,0.5l-0.2,2c-0.5-0.3-1.8-0.6-2.4-0.6c-1.1,0-2.1,0.5-2.1,1.5c0,2.5,5.3,1.8,5.3,5.6c0,2.6-2.1,3.8-4.2,3.8
		c-1.1,0-2.3-0.1-3.3-0.7L397.1,98.3z"/>
	<path d="M42.3,45.8L62.4,36v-1.4c-6.3-0.3-12-3.2-15.9-7.7L33.9,39.2C36.4,41.8,39.2,44,42.3,45.8z"/>
	<path d="M62.4,42.7L47,48.2c4.7,2,9.9,3.1,15.3,3.1V42.7z"/>
	<path d="M41.3,12.6c0-0.3,0-0.6,0-0.9H22.8c0,9.3,3.2,17.8,8.6,24.6l11.8-14.7C42,18.9,41.3,15.8,41.3,12.6z"/>
	<path fill="#FFFFFF" d="M51.6,21.9l-5.1-4.4l-3.3,4.2c0.9,1.9,2,3.7,3.3,5.2L51.6,21.9z"/>
	<path fill="#0053A1" d="M46.5,26.9c-1.3-1.6-2.5-3.3-3.3-5.2L31.4,36.3c0.8,1,1.6,2,2.5,2.9L46.5,26.9z"/>
	<path fill="#0053A1" d="M62.4,36l-20.1,9.9c1.5,0.9,3.1,1.7,4.7,2.4l15.3-5.5V36z"/>
	<g>
		<g>
			<path fill="#FFD300" d="M41.3,11.7c0,0.3,0,0.6,0,0.9c0,3.2,0.7,6.3,1.9,9l3.3-4.2l5.1,4.4l-5.1,5c3.9,4.5,9.5,7.4,15.9,7.7V11.7
				H41.3z"/>
			<path fill="#FFD300" d="M46.6,17.5l-3.3,4.2c0.9,1.9,2,3.7,3.3,5.2l5.1-5L46.6,17.5z"/>
		</g>
		<g>
			<path fill="#FFD300" d="M41.3,11.7c0,0.3,0,0.6,0,0.9c0,3.2,0.7,6.3,1.9,9l3.3-4.2l5.1,4.4l-5.1,5c3.9,4.5,9.5,7.4,15.9,7.7V11.7
				H41.3z"/>
			<path fill="#FFD300" d="M46.6,17.5l-3.3,4.2c0.9,1.9,2,3.7,3.3,5.2l5.1-5L46.6,17.5z"/>
		</g>
	</g>
	<path fill="#FFFFFF" d="M42.3,45.8c-3.1-1.8-5.9-4.1-8.4-6.7L11.6,61L42.3,45.8z"/>
	<path fill="#FFFFFF" d="M11.6,61l42.2-4.6l0.1,4.5L11.6,61L18,37.3l4.2-0.2L11.6,61l19.8-24.6C26,29.6,22.8,21,22.8,11.7H5.2v57.2
		h57.2V51.3c-5.4,0-10.6-1.1-15.3-3.1L11.6,61z"/>
	<path fill="#0053A1" d="M33.9,39.2c-0.9-0.9-1.7-1.9-2.5-2.9L11.6,61L33.9,39.2z"/>
	<polygon fill="#0053A1" points="18,37.3 11.6,61 22.1,37.1 	"/>
	<path fill="#0053A1" d="M47.1,48.2c-1.6-0.7-3.2-1.5-4.7-2.4L11.6,61L47.1,48.2z"/>
	<polygon fill="#0053A1" points="53.7,56.4 11.6,61 53.9,60.9 	"/>
	<circle cx="45.7" cy="15.6" r="1.8"/>
	<circle cx="50.7" cy="25.3" r="1.8"/>
	<circle cx="59.3" cy="29.8" r="1.8"/>
	<g>
		<path fill="#FFFFFF" d="M414.3,41.4c3.2,0,5.7,2.6,5.7,5.8c0,3.3-2.5,5.8-5.7,5.8c-3.2,0-5.7-2.5-5.7-5.8
			C408.6,44,411.1,41.4,414.3,41.4L414.3,41.4z M414.3,42.3c-2.5,0-4.6,2.2-4.6,4.9c0,2.7,2.1,4.9,4.6,4.9c2.6,0,4.6-2.2,4.6-4.9
			C418.9,44.5,416.9,42.3,414.3,42.3L414.3,42.3z M413.2,50.6h-1v-6.4c0.5-0.1,1.1-0.2,1.8-0.2c1,0,1.6,0.2,2,0.5
			c0.4,0.3,0.6,0.7,0.6,1.3c0,0.8-0.6,1.4-1.3,1.6v0.1c0.6,0.1,0.9,0.6,1.1,1.6c0.2,1,0.3,1.4,0.4,1.6h-1.1
			c-0.2-0.2-0.3-0.8-0.4-1.6c-0.2-0.8-0.6-1.1-1.4-1.1h-0.7V50.6z M413.2,47h0.7c0.8,0,1.6-0.3,1.6-1.1c0-0.6-0.4-1.1-1.6-1.1
			c-0.3,0-0.6,0-0.7,0.1V47z"/>
	</g>
</g>
</svg>
